<?xml version="1.0" encoding="UTF-8" standalone="no"?>
<!-- Created with Inkscape (http://www.inkscape.org/) -->

<svg
   xmlns:dc="http://purl.org/dc/elements/1.1/"
   xmlns:cc="http://creativecommons.org/ns#"
   xmlns:rdf="http://www.w3.org/1999/02/22-rdf-syntax-ns#"
   xmlns:svg="http://www.w3.org/2000/svg"
   xmlns="http://www.w3.org/2000/svg"
   xmlns:sodipodi="http://sodipodi.sourceforge.net/DTD/sodipodi-0.dtd"
   xmlns:inkscape="http://www.inkscape.org/namespaces/inkscape"
   sodipodi:docname="lollypop-itunes.svg"
   inkscape:export-filename="/home/sam/dev/RESOURCES/gnome-icon-theme-symbolic/src/gnome-stencils.png"
   inkscape:export-xdpi="90"
   inkscape:export-ydpi="90"
   height="17.066668"
   id="svg7384"
   version="1.1"
   inkscape:version="0.92.0 r"
   width="17.066668">
  <metadata
     id="metadata90">
    <rdf:RDF>
      <cc:Work
         rdf:about="">
        <dc:format>image/svg+xml</dc:format>
        <dc:type
           rdf:resource="http://purl.org/dc/dcmitype/StillImage" />
        <dc:title>Gnome Symbolic Icon Theme</dc:title>
      </cc:Work>
    </rdf:RDF>
  </metadata>
  <sodipodi:namedview
     inkscape:bbox-nodes="false"
     inkscape:bbox-paths="true"
     bordercolor="#666666"
     borderopacity="1"
     inkscape:current-layer="layer12"
     inkscape:cx="28.280122"
     inkscape:cy="-1.3505051"
     gridtolerance="10"
     inkscape:guide-bbox="true"
     guidetolerance="10"
     id="namedview88"
     inkscape:object-nodes="false"
     inkscape:object-paths="false"
     objecttolerance="10"
     pagecolor="#3a3b39"
     inkscape:pageopacity="1"
     inkscape:pageshadow="2"
     showborder="false"
     showgrid="false"
     showguides="true"
     inkscape:snap-bbox="true"
     inkscape:snap-bbox-midpoints="false"
     inkscape:snap-global="true"
     inkscape:snap-grids="true"
     inkscape:snap-nodes="true"
     inkscape:snap-others="false"
     inkscape:snap-to-guides="true"
     inkscape:window-height="986"
     inkscape:window-maximized="1"
     inkscape:window-width="1680"
     inkscape:window-x="0"
     inkscape:window-y="27"
     inkscape:zoom="14.481547">
    <inkscape:grid
       dotted="false"
       empspacing="2"
       enabled="true"
       id="grid4866"
       originx="106.66667"
       originy="629.33333"
       snapvisiblegridlinesonly="true"
       spacingx="1.0666667"
       spacingy="1.0666667"
       type="xygrid"
       visible="true" />
  </sodipodi:namedview>
  <title
     id="title9167">Gnome Symbolic Icon Theme</title>
  <defs
     id="defs7386" />
  <g
     inkscape:groupmode="layer"
     id="layer9"
     inkscape:label="status"
     style="display:inline"
     transform="translate(-150.40021,-860.8)" />
  <g
     inkscape:groupmode="layer"
     id="layer10"
     inkscape:label="devices"
     style="display:inline"
     transform="translate(-150.40021,-860.8)" />
  <g
     inkscape:groupmode="layer"
     id="layer11"
     inkscape:label="apps"
     transform="translate(-150.40021,-860.8)" />
  <g
     inkscape:groupmode="layer"
     id="layer13"
     inkscape:label="places"
     style="display:inline"
     transform="translate(-150.40021,-860.8)" />
  <g
     inkscape:groupmode="layer"
     id="layer14"
     inkscape:label="mimetypes"
     transform="translate(-150.40021,-860.8)" />
  <g
     inkscape:groupmode="layer"
     id="layer15"
     inkscape:label="emblems"
     style="display:inline"
     transform="translate(-150.40021,-860.8)" />
  <g
     inkscape:groupmode="layer"
     id="g71291"
     inkscape:label="emotes"
     style="display:inline"
     transform="translate(-150.40021,-860.8)" />
  <g
     inkscape:groupmode="layer"
     id="g4953"
     inkscape:label="categories"
     style="display:inline"
     transform="translate(-150.40021,-860.8)" />
  <g
     inkscape:groupmode="layer"
     id="layer12"
     inkscape:label="actions"
     style="display:inline"
     transform="translate(-150.40021,-860.8)">
    <path
       inkscape:connector-curvature="0"
       id="iTunes"
       d="m 158.90021,860.86667 c -4.69427,0 -8.5,3.80573 -8.5,8.5 0,4.69427 3.80573,8.5 8.5,8.5 4.69427,0 8.5,-3.80573 8.5,-8.5 0,-4.69427 -3.80573,-8.5 -8.5,-8.5 z m 0,15.3 c -3.7553,0 -6.8,-3.0447 -6.8,-6.8 0,-3.7553 3.0447,-6.8 6.8,-6.8 3.7553,0 6.8,3.0447 6.8,6.8 0,3.7553 -3.0447,6.8 -6.8,6.8 z m 3.11289,-4.52219 c 0.0546,0.72307 -0.48809,1.38135 -1.21305,1.47163 -0.72382,0.0899 -1.35716,-0.42311 -1.41137,-1.14598 -0.0554,-0.72213 0.48922,-1.38135 1.21304,-1.47088 0.22931,-0.0281 0.44823,0.004 0.64411,0.0827 v -3.55017 l -3.4,0.6324 v 4.43512 h -0.007 c 0.002,0.0125 0.005,0.024 0.005,0.0364 0.055,0.72307 -0.48809,1.38059 -1.21191,1.47088 -0.72533,0.0897 -1.35622,-0.4233 -1.41119,-1.14542 -0.0557,-0.72307 0.48734,-1.38191 1.21191,-1.47088 0.22913,-0.0291 0.44824,0.004 0.64412,0.0837 v -5.11228 -9.5e-4 l 4.93245,-0.84244 0.005,-0.002 v 7.6e-4 l 0.002,-7.6e-4 -0.002,0.0225 v 6.46944 h -0.007 c 0.002,0.0127 0.005,0.0232 0.006,0.0359 z"
       style="fill:#bebebe;fill-opacity:1;stroke:none;display:inline" />
  </g>
</svg>
