<?xml version="1.0" encoding="utf-8"?>
<!-- Svg Vector Icons : http://www.onlinewebfonts.com/icon -->
<!DOCTYPE svg PUBLIC "-//W3C//DTD SVG 1.1//EN" "http://www.w3.org/Graphics/SVG/1.1/DTD/svg11.dtd">
<svg version="1.1" xmlns="http://www.w3.org/2000/svg" xmlns:xlink="http://www.w3.org/1999/xlink" x="0px" y="0px" viewBox="0 0 1000 1000" enable-background="new 0 0 1000 1000" xml:space="preserve">
<metadata> Svg Vector Icons : http://www.onlinewebfonts.com/icon </metadata>
<g><g><path d="M716.6,348.8c0,2.2,1.8,9.7,5.5,22.4c3.6,10.6,8.2,19.6,13.7,27.1c5.5,7.5,12.9,13.7,22.4,18.6s17.5,8.6,24.1,10.9s16.6,5.4,30.1,9C930.8,470.1,990,530.6,990,618.5c0,53.2-19.2,97.4-57.7,132.6s-84.9,52.8-139.2,52.8c-21.5,0-41.8-3.4-61-10.1s-35.8-15-50-24.9c-14.2-9.8-28.3-23.4-42.1-40.7c-13.9-17.3-25.3-33.3-34.5-47.9c-9.1-14.6-18.9-33.5-29.3-56.6s-18.3-41.9-23.8-56.3s-12.7-33.8-21.6-58.2c-8.9-24.4-15.4-41.7-19.4-52c-11.7-29.5-22.9-53.9-33.6-73c-10.8-19.1-24.2-36.7-40.2-52.8c-16-16-35-27.7-56.9-35s-47.8-10.9-77.7-10.9c-35,0-68.4,10.1-100.1,30.4c-31.7,20.2-56.9,46.6-75.5,79C109,427.2,99.7,461,99.7,496c0,58.3,19.4,109.3,58.2,152.9c38.8,43.6,86.9,65.4,144.1,65.4c64.5,0,111.6-17.3,141.1-52c20.4-23,35.5-44.1,45.4-63.4l45.9,83.1c-5.5,12.4-13.5,25.2-24.1,38.3l0.5,0.5c-47.8,55.4-118.5,83.1-212.2,83.1c-53.6,0-102.7-14.4-147.4-43.2C106.7,731.8,72,694,47.2,647.2C22.4,600.3,10,550.3,10,497c0-38.3,7.9-75.8,23.8-112.7c15.9-36.8,37-69,63.4-96.5c26.4-27.5,57.8-49.7,94.1-66.4c36.3-16.8,73.6-25.2,111.8-25.2c31.7,0,60.7,3.5,87,10.4c26.3,6.9,48.8,16,67.5,27.3c18.8,11.3,36.1,25.9,52,43.7c15.9,17.9,29.1,35.9,39.6,54.1c10.6,18.2,21.2,39.6,32,64s20,47.1,27.6,68.1c7.7,21,16.8,44.8,27.3,71.4c10.6,26.6,20.6,49.8,30.1,69.5c35,72.9,77.5,109.4,127.4,109.4c29.5,0,54.8-8.8,75.7-26.5c21-17.7,31.4-41.1,31.4-70.3c0-15.3-3.5-28.4-10.4-39.4c-6.9-10.9-16.1-19.3-27.6-25.2s-24.7-11.6-39.6-17.2S792.9,525,777,520.8c-15.9-4.2-31.8-10.4-47.9-18.6c-16-8.2-30.8-17.7-44.3-28.4c-13.5-10.8-25.3-25.7-35.5-44.8S632,387.5,628,362c-1.1-5.8-1.6-11.8-1.6-18c0-40.1,16-75.1,47.9-105c31.9-29.9,68.1-44.1,108.6-42.7c28.4,1.1,50.4,3.7,65.9,7.9c15.5,4.2,32,13.9,49.5,29.3h-0.5c4.4,4,8.6,8.5,12.6,13.4c4,4.9,8.8,11.5,14.2,19.7c5.5,8.2,8.9,13.2,10.4,15l-70.5,54.1c-9.5-17.9-19.3-30.6-29.5-38.3v-0.5c-8.4-7.7-26.1-11.5-53-11.5c-17.9,0-33.2,6-45.9,18C722.9,315.5,716.6,330.6,716.6,348.8L716.6,348.8z"/></g></g>
</svg>